<svg width="29" height="29" viewBox="0 0 29 29" fill="none" xmlns="http://www.w3.org/2000/svg">
    <g clip-path="url(#clip0_962_1670)">
        <path d="M27.9364 3.47763C27.2525 2.79372 26.3426 2.41672 25.3748 2.41672H22.9569C20.9583 2.41913 19.3331 4.04555 19.3331 6.04413L19.3355 10.9802C19.3355 11.5868 19.6642 12.145 20.1959 12.4386C20.7275 12.731 21.374 12.7129 21.8887 12.3891L24.2945 10.8738H25.3748C27.3734 10.8738 28.9998 9.24742 28.9998 7.24884V6.04051C28.9998 5.07142 28.6228 4.16276 27.9364 3.47763ZM26.5831 7.25005C26.5831 7.91584 26.0418 8.45838 25.3748 8.45838H23.9453C23.7181 8.45838 23.4946 8.52242 23.3013 8.64447L21.751 9.6208V6.04413C21.751 5.37834 22.2911 4.8358 22.9569 4.8358H25.3748C25.6974 4.8358 26.0007 4.96026 26.2291 5.18863C26.4562 5.41701 26.5831 5.7203 26.5831 6.04292V7.25005ZM4.70502 18.1226L7.09873 19.6306C7.61589 19.9557 8.26719 19.9714 8.80006 19.6778C9.33173 19.3829 9.66402 18.821 9.66402 18.212L9.66644 13.2917C9.66644 11.2931 8.04123 9.66672 6.04264 9.66672H3.62598C2.6581 9.66672 1.74823 10.0437 1.06431 10.7276C0.379185 11.4128 0.000976562 12.3226 0.000976562 13.2917V14.5C0.000976562 16.4986 1.62739 18.125 3.62598 18.125H4.70623L4.70502 18.1226ZM2.41644 14.4976V13.2893C2.41644 12.9667 2.5421 12.6634 2.77048 12.435C2.99885 12.2066 3.30214 12.081 3.62477 12.081H6.04264C6.70844 12.0822 7.24977 12.6247 7.24977 13.2905V16.8684L5.69827 15.8908C5.50494 15.7688 5.28139 15.7048 5.05423 15.7048H3.62477C2.95777 15.7048 2.41644 15.1622 2.41644 14.4964V14.4976ZM3.06048 7.6198C2.52277 7.22467 2.40677 6.46826 2.80069 5.93055C5.51219 2.23788 10.2706 0.00488281 14.4224 0.00488281C15.7879 0.00488281 17.1472 0.178883 18.4522 0.546216C19.0951 0.727466 19.4684 1.39567 19.286 2.0373C19.1361 2.56897 18.6516 2.91817 18.1248 2.91817C17.9616 2.9218 17.7985 2.86984 17.6378 2.83963C17.6463 2.8493 17.6535 2.85897 17.662 2.86863C18.0801 3.38942 17.9967 4.14947 17.4771 4.56755C16.9611 4.98442 16.1987 4.90467 15.7794 4.38267C15.2973 3.78213 14.855 3.29155 14.4998 2.91576C13.5996 3.86792 12.1145 5.6043 10.9207 7.82401C10.6029 8.41609 9.85977 8.62876 9.2846 8.31459C8.69735 7.99801 8.47623 7.26576 8.79281 6.67851C9.60481 5.17051 10.5244 3.88122 11.3509 2.85534C8.73481 3.56705 6.3846 5.13426 4.74973 7.36242C4.35098 7.90255 3.59335 8.01251 3.06048 7.6198ZM16.9164 9.66672C16.9164 10.3337 16.3763 10.875 15.7081 10.875H12.0831C11.4149 10.875 10.8748 10.3337 10.8748 9.66672C10.8748 8.99972 11.4149 8.45838 12.0831 8.45838H15.7081C16.3763 8.45838 16.9164 8.99972 16.9164 9.66672ZM27.6295 12.0882C26.9649 12.1474 26.4744 12.7347 26.5336 13.3993C26.565 13.7618 26.5831 14.1291 26.5831 14.5C26.5831 15.7628 26.3861 16.9795 26.0261 18.125H21.8706C22.0627 17.3807 22.2126 16.6158 22.2899 15.8256C22.3551 15.161 21.8682 14.5701 21.2048 14.5061C20.5354 14.4408 19.9494 14.9278 19.8853 15.5912C19.8007 16.4636 19.611 17.3094 19.3609 18.125H12.6885C12.0203 18.125 11.4801 18.6652 11.4801 19.3334C11.4801 20.0016 12.0203 20.5417 12.6885 20.5417H18.393C17.1557 23.055 15.4809 25.0428 14.4986 26.0843C13.6926 25.23 12.419 23.7474 11.3122 21.8673C10.9726 21.2909 10.2295 21.1012 9.65798 21.4395C9.08281 21.7778 8.89189 22.5185 9.23023 23.0937C9.93106 24.2839 10.6814 25.3134 11.3666 26.1641C8.52456 25.404 6.02573 23.6278 4.37031 21.0891C4.00419 20.5296 3.25502 20.3738 2.69798 20.7363C2.13852 21.1012 1.98023 21.8503 2.34514 22.4086C5.03489 26.535 9.57823 28.9976 14.4974 28.9988C22.4917 28.9988 28.9961 22.4944 28.9961 14.4988C28.9961 14.0554 28.9756 13.6168 28.9369 13.183C28.8777 12.5196 28.3074 12.0338 27.6259 12.087L27.6295 12.0882ZM17.6475 26.1532C18.7857 24.7419 20.0992 22.8158 21.0526 20.5417H24.947C23.3653 23.2653 20.7553 25.3122 17.6475 26.1532Z" fill="#2aa34d"/>
    </g>
    <defs>
        <clipPath id="clip0_962_1670">
            <rect width="29" height="29" fill="white"/>
        </clipPath>
    </defs>
</svg>
